<svg xmlns="http://www.w3.org/2000/svg" viewBox="0 0 1200 1500" width="1200" height="1500" role="img">
  <defs>
    <linearGradient id="bg" x1="0" y1="0" x2="0" y2="1">
      <stop offset="0" stop-color="#faf8f5"/>
      <stop offset="1" stop-color="#efeae1"/>
    </linearGradient>
    <radialGradient id="glow" cx="0.5" cy="0.42" r="0.55">
      <stop offset="0" stop-color="#ffffff" stop-opacity="0.95"/>
      <stop offset="1" stop-color="#ffffff" stop-opacity="0"/>
    </radialGradient>
<linearGradient id="gold" x1="0" y1="0" x2="1" y2="1">
      <stop offset="0" stop-color="#e8d6a2"/>
      <stop offset="0.45" stop-color="#c9a227"/>
      <stop offset="1" stop-color="#a37f3f"/>
    </linearGradient>
    <radialGradient id="pearlsheen" cx="0.35" cy="0.3" r="0.75">
      <stop offset="0" stop-color="#ffffff"/>
      <stop offset="0.55" stop-color="#f3e7dc"/>
      <stop offset="1" stop-color="#d9c6b6"/>
    </radialGradient>
<linearGradient id="p" x1="0.15" y1="0" x2="0.9" y2="1">
      <stop offset="0" stop-color="#d8b45f"/>
      <stop offset="1" stop-color="#a37f3f"/>
    </linearGradient>
  </defs>
  <rect width="1200" height="1500" fill="url(#bg)"/>
  <rect width="1200" height="1500" fill="url(#glow)"/>
  <ellipse cx="600" cy="973" rx="345" ry="40" fill="#2d2b28" opacity="0.15"/>
  <g transform="translate(-96.0,28.4) scale(1.160)"><path d="M346 430 Q372 372 398 430" fill="none" stroke="url(#gold)" stroke-width="11" stroke-linecap="round"/><circle cx="372" cy="432" r="15" fill="url(#gold)"/><path d="M372 447 L372 546" stroke="url(#gold)" stroke-width="10" stroke-linecap="round"/><circle cx="372" cy="500" r="19" fill="url(#gold)" stroke="#a37f3f" stroke-width="3"/><path d="M314 566 Q372 528 430 566 L422 616 Q372 634 322 616 Z" fill="url(#gold)" stroke="#a37f3f" stroke-width="3" stroke-linejoin="round"/><circle cx="372" cy="700" r="92" fill="#f8f3ec" stroke="#a37f3f" stroke-width="4"/><circle cx="372" cy="700" r="92" fill="url(#pearlsheen)" opacity="0.55"/><ellipse cx="342" cy="666" rx="30" ry="22" fill="#ffffff" opacity="0.9" transform="rotate(-28 342 666)"/><path d="M802 430 Q828 372 854 430" fill="none" stroke="url(#gold)" stroke-width="11" stroke-linecap="round"/><circle cx="828" cy="432" r="15" fill="url(#gold)"/><path d="M828 447 L828 546" stroke="url(#gold)" stroke-width="10" stroke-linecap="round"/><circle cx="828" cy="500" r="19" fill="url(#gold)" stroke="#a37f3f" stroke-width="3"/><path d="M770 566 Q828 528 886 566 L878 616 Q828 634 778 616 Z" fill="url(#gold)" stroke="#a37f3f" stroke-width="3" stroke-linejoin="round"/><circle cx="828" cy="700" r="92" fill="#f8f3ec" stroke="#a37f3f" stroke-width="4"/><circle cx="828" cy="700" r="92" fill="url(#pearlsheen)" opacity="0.55"/><ellipse cx="798" cy="666" rx="30" ry="22" fill="#ffffff" opacity="0.9" transform="rotate(-28 798 666)"/></g>
</svg>