<svg xmlns="http://www.w3.org/2000/svg" viewBox="0 0 1200 1500" width="1200" height="1500" role="img">
  <defs>
    <linearGradient id="bg" x1="0" y1="0" x2="0" y2="1">
      <stop offset="0" stop-color="#faf8f5"/>
      <stop offset="1" stop-color="#efeae1"/>
    </linearGradient>
    <radialGradient id="glow" cx="0.5" cy="0.42" r="0.55">
      <stop offset="0" stop-color="#ffffff" stop-opacity="0.95"/>
      <stop offset="1" stop-color="#ffffff" stop-opacity="0"/>
    </radialGradient>
<linearGradient id="gold" x1="0" y1="0" x2="1" y2="1">
      <stop offset="0" stop-color="#e8d6a2"/>
      <stop offset="0.45" stop-color="#c9a227"/>
      <stop offset="1" stop-color="#a37f3f"/>
    </linearGradient>
    <radialGradient id="pearlsheen" cx="0.35" cy="0.3" r="0.75">
      <stop offset="0" stop-color="#ffffff"/>
      <stop offset="0.55" stop-color="#f3e7dc"/>
      <stop offset="1" stop-color="#d9c6b6"/>
    </radialGradient>
<linearGradient id="p" x1="0.15" y1="0" x2="0.9" y2="1">
      <stop offset="0" stop-color="#c39a6b"/>
      <stop offset="1" stop-color="#8f6b40"/>
    </linearGradient>
  </defs>
  <rect width="1200" height="1500" fill="url(#bg)"/>
  <rect width="1200" height="1500" fill="url(#glow)"/>
  <ellipse cx="600" cy="1120" rx="288" ry="34" fill="#2d2b28" opacity="0.15"/>
  <g transform="translate(-97.2,-216.4) scale(1.160)"><path d="M336 452 L872 452 L872 1052 Q872 1092 832 1092 L336 1092 Z" fill="#84623b" stroke="#3b372f" stroke-width="5" stroke-linejoin="round"/><path d="M368 596 L836 596 L836 742 L368 742 Z" fill="#ffffff" opacity="0.94" stroke="#3b372f" stroke-width="3"/><path d="M398 634 L790 634" stroke="#8f6b40" stroke-width="7" opacity="0.35" stroke-linecap="round"/><path d="M398 676 L700 676" stroke="#8f6b40" stroke-width="7" opacity="0.22" stroke-linecap="round"/><path d="M312 700 L864 700 Q890 700 890 726 L890 1104 Q890 1130 864 1130 L312 1130 Z" fill="url(#p)" stroke="#3b372f" stroke-width="5" stroke-linejoin="round"/><path d="M348 1160 L854 1160" stroke="#c9a227" stroke-width="4" stroke-dasharray="10 12" opacity="0.75" stroke-linecap="round"/><rect x="330" y="720" width="110" height="360" rx="55" fill="#ffffff" opacity="0.16" transform="rotate(-7 385.0 900.0)"/></g>
</svg>